<?xml version="1.0" standalone="no"?>
<!DOCTYPE svg PUBLIC "-//W3C//DTD SVG 20010904//EN"
 "http://www.w3.org/TR/2001/REC-SVG-20010904/DTD/svg10.dtd">
<svg version="1.0" xmlns="http://www.w3.org/2000/svg"
 width="12756.000000pt" height="12756.000000pt" viewBox="0 0 12756.000000 12756.000000"
 preserveAspectRatio="xMidYMid meet">

<g transform="translate(0.000000,12756.000000) scale(0.100000,-0.100000)"
fill="#000000" stroke="none">
<path d="M10155 118646 c-94 -14 -271 -56 -405 -96 -52 -16 -115 -32 -140 -36
-25 -3 -67 -15 -95 -25 -76 -28 -258 -57 -495 -79 -118 -11 -228 -22 -245 -25
-16 -3 -72 -9 -123 -14 -102 -11 -253 -59 -386 -124 -43 -21 -113 -45 -155
-54 -121 -25 -280 -86 -363 -140 -85 -56 -81 -54 -278 -118 -178 -59 -177 -58
-275 -140 -92 -76 -198 -132 -320 -170 -72 -22 -93 -33 -145 -82 -34 -31 -103
-79 -158 -108 -215 -115 -313 -176 -342 -210 -8 -9 -57 -38 -110 -65 -65 -33
-120 -70 -171 -117 -42 -37 -106 -83 -142 -102 -75 -38 -144 -100 -208 -187
-24 -33 -118 -132 -209 -220 -395 -382 -506 -497 -540 -562 -18 -35 -65 -100
-105 -145 -39 -45 -90 -109 -112 -142 -22 -33 -74 -96 -115 -140 -40 -44 -95
-116 -120 -160 -26 -44 -65 -102 -88 -130 -146 -180 -180 -234 -224 -357 -11
-30 -41 -72 -87 -119 -92 -97 -151 -211 -174 -334 -14 -75 -25 -105 -71 -180
-70 -118 -130 -253 -148 -340 -13 -60 -55 -184 -144 -425 -32 -87 -69 -272
-87 -430 -32 -293 -54 -382 -130 -535 -25 -49 -45 -95 -45 -102 0 -7 -12 -48
-26 -93 -14 -45 -29 -107 -35 -138 -15 -96 -38 -795 -39 -1217 0 -220 3
-17324 7 -38010 8 -35281 10 -37619 26 -37760 9 -82 23 -177 32 -210 36 -144
65 -316 65 -390 0 -76 2 -84 45 -158 59 -104 85 -189 96 -319 11 -130 61 -340
93 -388 51 -78 116 -237 152 -374 18 -69 46 -129 81 -170 13 -16 47 -76 75
-133 38 -79 54 -128 67 -203 21 -118 55 -180 149 -272 83 -81 109 -127 126
-225 17 -101 30 -124 110 -209 39 -40 96 -121 140 -194 41 -69 104 -160 139
-204 47 -57 73 -100 96 -162 28 -72 43 -95 118 -176 47 -51 103 -118 124 -149
21 -31 70 -85 110 -120 125 -112 240 -235 397 -426 24 -29 74 -78 112 -108 38
-30 90 -83 116 -117 75 -100 104 -127 194 -180 47 -28 121 -85 166 -128 44
-42 107 -94 139 -114 32 -21 95 -71 141 -111 67 -60 93 -77 141 -90 142 -40
178 -61 296 -172 49 -46 100 -89 115 -94 15 -6 64 -17 110 -24 99 -16 142 -39
237 -129 86 -80 160 -121 245 -136 36 -6 85 -17 110 -25 25 -8 86 -22 135 -30
65 -12 106 -25 147 -50 104 -61 252 -114 366 -130 127 -18 226 -51 349 -115
53 -28 114 -52 140 -55 27 -4 80 -13 118 -21 39 -7 113 -18 165 -24 52 -6 131
-16 175 -22 44 -5 427 -13 850 -18 464 -4 808 -12 865 -19 52 -6 160 -18 240
-27 80 -8 197 -22 260 -29 196 -24 298 -27 490 -15 402 23 898 49 1150 60 146
6 276 14 290 17 14 4 7085 10 15715 13 8630 4 16659 7 17844 8 1690 2 2162 0
2194 -10 25 -7 61 -32 89 -58 56 -54 66 -94 50 -195 -18 -114 -51 -495 -62
-715 -9 -199 -20 -293 -39 -355 -10 -31 -113 -268 -149 -340 -25 -52 -59 -251
-66 -390 -7 -130 -18 -286 -41 -560 -17 -204 -64 -446 -101 -517 -9 -17 -24
-74 -34 -127 -10 -53 -25 -127 -34 -166 -8 -38 -22 -135 -31 -215 -43 -389
-65 -520 -120 -725 -46 -169 -92 -487 -114 -790 -24 -315 -34 -406 -58 -535
-14 -74 -36 -161 -49 -193 -31 -72 -100 -274 -118 -342 -31 -117 -46 -255 -56
-535 -18 -482 -40 -656 -115 -875 -18 -55 -43 -138 -55 -185 -58 -233 -65
-282 -90 -585 -19 -227 -61 -529 -100 -715 -37 -179 -70 -375 -70 -420 0 -144
-90 -303 -194 -344 -23 -10 -140 -13 -451 -14 -401 -2 -1020 -7 -3500 -33
-1166 -12 -1141 -12 -2425 32 -179 7 -410 9 -515 5 -104 -4 -325 -11 -490 -16
-784 -25 -876 -30 -1040 -55 -264 -42 -441 -63 -620 -75 -168 -11 -325 -30
-419 -52 -26 -6 -119 -44 -205 -86 -135 -65 -167 -76 -236 -84 -94 -11 -319
-55 -354 -69 -13 -6 -81 -47 -150 -93 -153 -101 -170 -110 -251 -131 -83 -22
-120 -41 -205 -110 -93 -74 -190 -133 -305 -184 -68 -29 -111 -56 -150 -93
-30 -28 -93 -77 -140 -109 -47 -31 -110 -83 -140 -114 -30 -31 -91 -85 -135
-120 -44 -34 -107 -93 -140 -131 -33 -37 -94 -94 -135 -127 -41 -32 -118 -102
-170 -155 -53 -54 -128 -126 -168 -160 -44 -39 -86 -87 -108 -125 -20 -34 -69
-100 -108 -147 -40 -47 -95 -116 -121 -155 -27 -38 -67 -89 -88 -112 -58 -62
-81 -100 -110 -178 -44 -124 -105 -239 -168 -315 -75 -92 -76 -93 -104 -194
-54 -184 -93 -273 -161 -363 -41 -54 -100 -232 -119 -360 -25 -168 -63 -338
-90 -398 -45 -103 -95 -296 -105 -411 -6 -60 -17 -273 -24 -474 -12 -314 -17
-375 -35 -440 -57 -201 -55 -180 -31 -308 17 -88 21 -140 18 -212 -11 -231 27
-435 116 -630 25 -52 47 -111 51 -130 4 -19 29 -100 56 -179 45 -133 68 -178
125 -240 12 -13 45 -67 74 -120 78 -142 121 -199 204 -269 42 -34 95 -88 118
-120 106 -144 201 -234 308 -291 80 -43 157 -99 237 -173 43 -39 80 -75 83
-79 12 -16 75 -40 147 -58 154 -37 324 -92 385 -125 180 -97 435 -142 863
-151 149 -3 286 -7 305 -9 19 -2 251 -7 515 -11 730 -10 49141 -5 50235 6
2324 21 2653 31 2785 80 63 23 191 89 237 121 15 10 57 25 95 33 211 47 363
92 398 120 16 13 53 45 80 70 28 26 88 71 135 102 56 37 130 101 220 191 185
187 225 235 271 322 21 41 63 107 92 145 38 49 59 89 71 135 22 76 92 238 128
295 14 22 42 58 62 80 41 46 67 107 95 225 23 101 46 360 38 430 -3 28 2 125
13 217 33 298 53 619 47 783 -3 123 -11 184 -35 295 -39 178 -59 338 -67 540
-13 343 -25 475 -52 548 -26 72 -73 154 -122 210 -56 64 -96 180 -127 370 -16
96 -23 113 -88 215 -51 79 -128 230 -146 287 -18 57 -46 109 -86 162 -19 25
-64 105 -100 177 -69 138 -138 237 -228 324 -30 29 -71 77 -91 107 -19 30 -71
92 -113 137 -43 46 -99 113 -125 149 -26 36 -74 93 -108 125 -33 32 -92 103
-130 156 -71 100 -115 141 -209 198 -30 18 -93 68 -140 110 -47 42 -119 100
-160 128 -41 28 -94 71 -118 96 -29 31 -78 63 -160 104 -173 87 -185 94 -308
198 -51 43 -74 55 -132 68 -39 9 -78 16 -86 16 -29 0 -166 78 -249 143 -47 36
-94 70 -106 76 -34 19 -239 61 -338 71 -97 10 -174 37 -348 120 -90 43 -219
70 -460 95 -210 22 -281 31 -505 59 -113 15 -243 31 -290 37 -47 6 -139 17
-205 25 -66 9 -154 20 -195 25 -124 15 -594 37 -940 44 -192 4 -694 0 -1230
-9 -664 -12 -1514 -16 -3196 -16 l-2292 -1 -79 30 c-93 36 -154 92 -203 188
-34 66 -46 131 -75 383 -36 320 -64 475 -104 585 -130 353 -153 453 -165 725
-22 455 -49 641 -119 813 -97 237 -136 411 -157 712 -35 491 -73 779 -132 990
-54 195 -82 381 -118 775 -17 184 -57 425 -99 595 -79 320 -105 532 -131 1105
-6 118 -13 240 -16 270 -13 115 -54 282 -87 357 -19 43 -38 91 -41 106 -4 15
-20 56 -37 90 -56 114 -80 268 -94 584 -11 255 -46 584 -70 663 -4 14 -13 39
-21 55 -15 34 -78 206 -100 275 -25 75 -66 380 -59 430 11 76 56 138 115 162
16 7 406 9 1145 7 616 -1 1800 -4 2630 -4 998 -1 1681 -6 2015 -16 641 -17
810 -17 1490 0 993 24 1510 20 2220 -18 96 -6 294 -15 440 -21 146 -6 427 -20
624 -31 399 -21 579 -23 801 -9 221 14 1328 64 1790 80 366 13 20145 13 20680
0 410 -10 693 -18 1550 -45 270 -8 634 -20 810 -25 680 -21 820 -23 965 -12
303 24 447 33 825 52 608 31 830 38 1415 45 899 10 1145 28 1370 102 74 25
153 55 175 69 42 24 260 92 368 114 32 6 95 31 140 55 45 23 111 53 147 65 36
12 81 31 100 40 19 10 65 27 102 38 92 29 117 43 195 112 85 76 198 142 283
165 95 26 130 47 194 113 38 40 93 80 164 120 59 34 138 87 176 119 101 86
163 130 224 161 30 15 92 62 138 104 73 66 97 81 172 110 91 34 116 54 247
198 28 30 79 77 115 104 93 70 292 259 357 338 30 37 86 93 124 124 71 58 141
140 174 203 9 18 52 71 96 117 84 90 97 110 124 194 16 51 35 89 103 210 61
109 103 163 219 279 68 68 130 135 138 150 7 15 19 65 25 112 12 90 23 113
105 224 111 150 125 177 146 280 26 129 84 299 118 349 68 98 128 253 155 398
8 43 30 112 49 155 19 43 37 92 41 108 4 17 20 59 36 95 39 90 69 252 105 575
21 184 61 394 92 475 35 94 74 244 84 325 7 64 16 253 51 1165 10 248 12 5440
11 24280 -1 13181 -2 29991 -2 37355 -1 8666 -4 13426 -11 13493 -11 122 -30
210 -75 357 -19 61 -43 145 -55 188 -12 42 -28 94 -37 115 -30 73 -67 317 -89
597 -8 98 -62 295 -108 390 -18 38 -41 95 -50 125 -37 126 -65 228 -77 280
-13 60 -101 253 -155 340 -26 43 -37 76 -49 155 -21 127 -77 239 -169 337 -56
60 -66 79 -96 165 -47 140 -122 285 -185 359 -30 35 -71 96 -91 135 -19 40
-65 105 -100 146 -36 41 -86 106 -110 144 -25 38 -85 111 -133 162 -48 51
-109 121 -136 157 -27 36 -88 106 -137 157 -48 51 -118 138 -155 195 -47 73
-92 128 -157 188 -50 47 -122 117 -161 156 -78 78 -137 127 -205 166 -25 15
-90 66 -145 115 -55 49 -140 120 -190 158 -49 39 -124 102 -165 141 -78 74
-119 99 -208 129 -32 10 -85 42 -135 82 -45 35 -116 83 -157 105 -102 56 -183
111 -255 173 -78 68 -102 80 -209 100 -49 9 -114 29 -145 45 -50 25 -85 49
-225 157 -22 18 -63 37 -91 44 -120 29 -326 104 -397 146 -88 51 -236 101
-387 132 -57 12 -109 26 -116 31 -7 6 -36 19 -66 29 -30 10 -92 36 -139 58
-120 56 -136 61 -215 73 -38 6 -86 15 -105 20 -19 5 -125 16 -235 25 -238 19
-405 46 -497 81 -124 47 -292 95 -368 104 -41 5 -336 14 -655 20 -319 5 -850
15 -1180 22 -872 17 -104183 21 -104300 4z m2505 -9217 c23 -8 232 -14 625
-20 325 -4 757 -12 960 -18 489 -13 6666 -14 9060 -1 1093 6 8934 10 19305 11
36593 2 59011 9 61295 18 1304 6 3970 9 5925 7 1955 -1 3655 1 3778 5 141 4
236 4 260 -3 65 -17 131 -67 157 -117 32 -64 35 -97 19 -188 -18 -106 -20
-772 -14 -5488 7 -6057 6 -29214 -3 -37070 -10 -9715 -8 -20439 5 -23020 5
-1171 11 -2161 11 -2200 1 -38 -6 -105 -16 -148 -21 -89 -54 -134 -121 -169
-46 -24 -117 -30 -571 -48 -171 -6 -17406 -10 -50446 -10 -27602 0 -50213 -3
-50247 -6 -114 -12 -204 35 -233 121 -11 32 -14 348 -17 1655 -1 888 -6 2421
-11 3405 -4 985 -6 3862 -5 6395 2 2533 6 16336 9 30675 l6 26069 23 41 c58
98 147 136 246 104z m51785 -92990 c23967 0 22982 1 23105 -42 25 -8 62 -19
83 -22 20 -4 37 -11 37 -16 0 -5 8 -9 19 -9 10 0 38 -18 62 -41 24 -22 56 -48
72 -57 15 -9 27 -20 27 -24 0 -4 7 -5 15 -2 8 4 15 2 15 -4 0 -5 26 -12 58
-16 32 -4 67 -13 78 -20 10 -7 62 -17 114 -21 116 -8 164 -30 203 -90 15 -23
27 -48 27 -54 0 -6 10 -15 23 -20 12 -5 43 -18 67 -28 58 -26 149 -64 175 -73
83 -29 133 -62 170 -108 25 -31 69 -67 116 -96 86 -51 109 -79 109 -131 0 -42
-34 -85 -67 -85 -13 0 -23 -4 -23 -9 0 -6 -15 -5 -37 1 -20 5 -65 7 -99 4 -48
-4 -79 -1 -126 14 -35 11 -71 20 -80 20 -10 0 -18 6 -18 13 0 6 -18 18 -40 25
-50 15 -67 15 -74 0 -5 -10 -7 -10 -12 0 -7 14 -104 17 -104 2 0 -5 -20 -10
-45 -10 -37 0 -45 -3 -45 -19 0 -19 -39 -31 -102 -31 -16 0 -28 -4 -28 -10 0
-5 -6 -10 -14 -10 -8 0 -16 -6 -18 -12 -4 -10 -101 -13 -438 -13 -331 -1 -435
-4 -438 -13 -4 -14 -312 -18 -312 -4 0 5 -152 12 -337 15 -253 5 -339 10 -345
19 -6 10 -8 9 -8 -4 0 -25 -53 -27 -707 -34 -431 -4 -593 -3 -593 5 0 17 -437
15 -443 -1 -3 -10 -310 -12 -1503 -10 -920 2 -1500 7 -1502 13 -2 5 -30 9 -63
9 -46 0 -59 3 -59 15 0 12 -15 15 -79 15 -44 0 -81 -4 -83 -10 -5 -14 -39451
-15 -39456 -1 -5 14 -252 15 -252 1 0 -6 -90 -10 -249 -10 -209 0 -252 2 -265
15 -11 11 -38 15 -104 15 -50 0 -92 4 -94 9 -2 6 -63 6 -158 -1 -177 -11 -345
-5 -368 14 -22 19 -608 22 -1207 8 -264 -6 -501 -11 -527 -10 -30 0 -48 -3
-48 -10 0 -8 -10 -9 -30 -5 -16 4 -79 7 -140 7 -60 0 -110 4 -110 9 0 5 -35 9
-79 9 -108 0 -171 10 -171 26 0 22 -273 20 -294 -2 -9 -8 -37 -22 -63 -31 -27
-9 -53 -20 -59 -24 -17 -14 -91 -17 -142 -6 -26 5 -59 10 -74 10 -34 1 -37 25
-9 89 28 65 78 113 161 154 66 33 109 66 110 86 0 15 60 101 77 113 23 16 84
32 146 38 50 5 77 20 77 43 0 8 4 14 10 14 5 0 7 7 4 15 -4 8 -2 15 4 15 5 0
15 14 22 31 15 35 59 60 140 80 30 7 60 16 65 20 21 14 115 40 147 41 18 1 36
6 41 12 5 8 10 6 17 -4 7 -10 12 -12 18 -4 4 6 16 14 28 18 11 3 26 17 33 29
17 32 70 55 149 64 23 3 42 9 42 14 0 5 12 9 26 9 14 0 35 5 46 11 51 27 786
56 1538 60 245 1 580 5 745 9 165 4 399 6 520 4 121 -2 10471 -4 23000 -5z
m-27235 -1033 c0 -37 -17 -57 -30 -36 -4 7 -13 9 -19 6 -7 -4 -11 1 -11 13 0
13 5 19 14 15 8 -3 16 3 19 15 8 34 27 24 27 -13z"/>
<path d="M44235 105405 c-143 -7 -326 -14 -407 -14 -183 -1 -300 -30 -443
-110 -33 -18 -102 -48 -153 -66 -114 -41 -175 -81 -272 -180 -41 -42 -105 -96
-142 -121 -37 -26 -96 -76 -130 -113 -35 -36 -92 -90 -126 -120 -35 -30 -78
-76 -97 -102 -18 -26 -40 -56 -49 -66 -133 -165 -181 -250 -200 -358 -21 -121
-58 -226 -123 -353 -72 -141 -94 -238 -98 -442 -1 -52 -10 -430 -19 -840 -15
-608 -17 -965 -12 -1945 4 -660 6 -3151 7 -5536 l0 -4336 -21 -56 c-28 -74
-74 -123 -125 -133 -22 -4 -71 -2 -110 5 -88 14 -890 16 -1025 2 -52 -6 -201
-21 -330 -35 -215 -23 -320 -32 -635 -56 -106 -7 -401 -37 -610 -61 -212 -24
-235 -32 -447 -162 -68 -41 -111 -60 -154 -68 -134 -24 -157 -30 -217 -58 -35
-16 -102 -63 -150 -104 -69 -59 -102 -80 -164 -102 -93 -34 -131 -56 -203
-121 -30 -27 -89 -76 -130 -109 -41 -33 -121 -101 -176 -151 -56 -50 -131
-112 -166 -137 -35 -26 -86 -75 -113 -109 -27 -35 -81 -97 -120 -138 -40 -41
-86 -96 -103 -121 -17 -25 -63 -77 -103 -115 -149 -142 -164 -160 -218 -269
-39 -78 -68 -121 -107 -160 -39 -38 -67 -79 -99 -147 -62 -129 -131 -257 -150
-278 -8 -9 -15 -20 -15 -23 0 -4 -11 -24 -23 -45 -24 -37 -41 -96 -52 -185 -6
-49 -79 -206 -112 -242 -32 -35 -90 -119 -97 -140 -12 -40 -47 -243 -57 -330
-5 -49 -14 -227 -18 -395 -8 -283 -12 -320 -45 -515 -20 -115 -45 -237 -55
-270 -50 -159 -50 -171 -51 -980 -1 -580 2 -792 13 -895 7 -74 15 -235 16
-357 2 -123 7 -240 13 -260 5 -21 14 -56 19 -78 26 -99 -13 -178 -108 -221
-97 -45 -157 -51 -383 -43 -358 14 -2322 14 -2525 0 -172 -12 -379 -45 -475
-76 -25 -8 -85 -21 -135 -30 -49 -8 -103 -20 -120 -25 -16 -5 -70 -14 -120
-20 -49 -5 -106 -14 -125 -20 -42 -12 -274 -46 -380 -55 -41 -4 -133 -15 -204
-26 -126 -18 -148 -25 -371 -115 -49 -19 -137 -49 -195 -64 -203 -55 -257 -77
-351 -139 -50 -34 -110 -66 -133 -72 -65 -17 -257 -88 -306 -114 -25 -12 -69
-45 -97 -71 -45 -43 -127 -93 -334 -202 -31 -16 -89 -53 -130 -82 -41 -28
-105 -68 -144 -87 -45 -23 -93 -58 -133 -99 -35 -36 -103 -91 -151 -123 -57
-39 -119 -93 -177 -156 -90 -98 -123 -125 -248 -203 -81 -50 -207 -155 -279
-232 -29 -30 -88 -89 -132 -132 -151 -145 -180 -175 -262 -274 -45 -54 -123
-157 -174 -229 -50 -71 -112 -152 -136 -179 -58 -65 -70 -90 -88 -182 -17 -90
-31 -114 -99 -174 -117 -102 -144 -137 -199 -252 -30 -62 -75 -138 -99 -168
-56 -68 -72 -100 -92 -175 -20 -76 -94 -248 -132 -304 -16 -24 -37 -57 -48
-73 -20 -31 -56 -183 -81 -338 -22 -139 -71 -264 -140 -360 -87 -121 -112
-241 -140 -680 -15 -244 -33 -409 -81 -755 -26 -186 -42 -331 -63 -565 -20
-217 -21 -305 -22 -2580 -3 -8624 0 -16837 6 -16900 3 -41 10 -91 15 -110 5
-19 14 -80 20 -135 6 -54 17 -135 25 -180 39 -220 48 -343 55 -785 6 -341 12
-469 25 -550 14 -86 16 -142 10 -316 -3 -116 -3 -222 0 -236 6 -23 13 -26 64
-32 83 -9 126 -42 146 -109 8 -30 15 -84 14 -123 -1 -38 3 -91 9 -119 6 -27
17 -77 24 -110 11 -54 19 -66 76 -122 59 -58 112 -125 112 -141 0 -4 25 -52
56 -107 42 -76 75 -118 133 -175 62 -60 82 -87 99 -133 12 -32 22 -62 22 -67
0 -24 47 -83 95 -119 53 -40 90 -100 109 -176 11 -45 74 -151 111 -188 18 -17
59 -54 90 -81 41 -36 66 -67 86 -110 35 -75 49 -93 119 -143 71 -52 84 -67
115 -136 24 -51 64 -97 86 -97 5 0 33 -16 64 -35 57 -37 86 -81 99 -157 8 -44
50 -83 105 -98 64 -17 104 -51 137 -117 39 -76 52 -90 122 -123 55 -26 142
-103 142 -126 0 -21 46 -53 117 -82 87 -35 140 -73 206 -147 63 -72 150 -129
218 -145 102 -24 138 -47 185 -120 32 -50 54 -72 86 -87 46 -22 179 -74 239
-92 57 -18 108 -47 139 -80 34 -35 70 -60 96 -66 11 -2 49 -11 86 -19 37 -8
75 -19 85 -24 10 -5 55 -22 100 -37 80 -26 155 -70 180 -105 14 -20 112 -70
137 -70 10 0 41 -7 69 -15 68 -19 242 -35 392 -35 161 -1 298 -22 424 -64 58
-20 113 -36 122 -36 10 0 20 -4 23 -8 16 -26 142 -73 256 -96 171 -34 310 -46
534 -46 105 -1 265 -5 356 -10 151 -9 2497 -13 2890 -5 91 2 849 4 1685 5
1104 1 1529 -2 1552 -10 69 -25 64 -104 -13 -183 -46 -48 -65 -83 -93 -177
-34 -110 -40 -179 -34 -401 4 -194 3 -222 -16 -302 -25 -106 -49 -155 -105
-216 -80 -86 -107 -181 -126 -441 -15 -202 -28 -384 -40 -530 -6 -69 -15 -262
-20 -430 -10 -317 -11 -303 30 -525 5 -27 14 -86 20 -130 20 -149 27 -168 77
-211 105 -88 114 -101 176 -224 l62 -125 60 -30 c77 -39 156 -117 180 -181 29
-77 42 -91 119 -129 39 -20 78 -40 86 -44 8 -4 41 -21 73 -37 31 -15 57 -31
57 -34 0 -3 20 -26 43 -51 51 -57 97 -81 201 -109 44 -12 84 -24 89 -27 5 -3
23 -9 41 -14 59 -14 151 -52 176 -71 39 -31 92 -51 128 -49 19 2 32 -2 32 -9
0 -7 7 -9 16 -6 8 3 57 -1 107 -9 51 -8 121 -18 157 -22 111 -13 45974 -16
46125 -3 72 6 132 15 133 21 2 5 10 9 18 9 8 0 22 4 32 9 45 25 125 61 134 61
6 0 26 12 45 26 18 14 52 34 76 44 51 22 206 63 302 80 127 22 131 23 249 136
14 13 76 44 96 49 57 12 187 114 212 165 27 56 123 198 142 210 10 6 31 13 45
15 22 3 31 -3 51 -35 13 -21 28 -36 33 -33 5 3 8 0 5 -8 -3 -8 2 -20 10 -29
12 -11 14 -34 9 -117 -8 -116 -4 -133 28 -133 37 0 49 73 41 244 -3 78 -9 202
-12 276 -7 135 12 345 38 445 14 53 20 585 8 705 -5 52 -14 185 -20 295 -6
110 -20 277 -30 370 -11 94 -24 232 -30 307 -12 162 -34 261 -67 298 -31 35
-79 80 -85 80 -12 0 -55 102 -76 180 -23 85 -36 310 -23 424 12 108 -6 204
-60 322 -11 22 -19 44 -19 49 0 4 -10 18 -22 30 -38 38 -49 54 -69 100 -16 35
-17 48 -8 69 7 14 19 28 28 32 32 13 421 19 1221 19 838 -1 1225 -8 1365 -26
157 -20 672 -31 1395 -31 449 0 774 5 835 11 55 6 339 15 630 21 292 5 611 16
710 25 99 8 252 17 340 20 188 7 473 33 497 46 9 5 26 9 37 9 12 0 29 4 39 9
9 5 41 20 70 32 28 12 52 25 52 29 0 9 79 60 94 60 7 0 16 4 22 9 9 10 54 23
144 42 25 5 95 11 155 13 212 7 345 24 455 59 75 23 107 43 161 102 22 24 54
46 76 53 85 25 223 51 303 57 90 6 107 14 155 65 84 90 108 107 182 138 78 32
210 65 224 56 9 -5 90 75 127 124 23 32 90 67 257 136 65 27 68 30 123 106 29
41 66 81 80 91 15 9 70 25 122 35 l94 19 45 59 c58 75 86 104 136 140 22 16
53 43 68 60 109 118 135 141 198 176 47 25 174 141 233 211 57 69 147 168 204
225 62 63 115 135 126 171 7 21 65 83 155 164 27 24 43 49 51 80 30 115 45
140 134 214 52 43 101 133 146 270 31 93 56 129 110 159 68 37 96 73 124 160
26 82 89 196 135 245 67 72 105 146 124 241 13 60 41 120 78 165 21 26 39 43
39 39 0 -21 111 111 121 144 21 69 23 242 4 369 -16 111 -16 123 -1 208 13 68
32 120 77 212 108 222 124 331 134 908 6 388 15 626 23 640 18 29 24 2890 26
10850 1 7209 -1 8939 -12 9195 -7 173 -17 414 -22 535 -11 266 -34 383 -93
475 -13 19 -34 60 -46 90 -13 30 -43 96 -67 145 -65 134 -81 219 -110 600 -8
103 -17 133 -74 230 -72 123 -107 192 -144 287 -21 56 -53 112 -86 153 -28 37
-60 86 -70 110 -10 24 -30 67 -44 97 -14 29 -36 91 -50 138 -22 75 -32 93 -88
154 -56 61 -130 176 -159 246 -28 69 -60 119 -125 191 -39 43 -77 91 -85 106
-42 84 -80 135 -145 199 -58 56 -81 87 -113 155 -50 106 -84 152 -196 269
-176 183 -201 207 -254 243 -29 19 -74 55 -100 80 -25 24 -89 80 -142 123 -52
43 -113 99 -135 123 -120 136 -141 154 -233 204 -64 34 -111 68 -145 105 -28
30 -82 72 -121 94 -38 22 -108 65 -155 96 -46 30 -109 69 -140 85 -30 16 -59
33 -65 38 -5 4 -52 29 -104 55 -56 28 -119 71 -158 107 -36 32 -84 67 -107 76
-66 29 -197 69 -246 76 -62 8 -120 36 -192 92 -35 26 -74 54 -88 61 -54 29
-168 72 -230 87 -36 9 -89 25 -118 36 -30 11 -88 29 -130 40 -43 11 -106 33
-141 50 -36 16 -103 38 -150 49 -47 11 -109 26 -138 34 -51 14 -185 30 -358
42 -49 3 -115 12 -145 19 -30 7 -75 16 -100 20 -25 3 -72 15 -105 25 -33 10
-105 26 -160 34 -100 15 -152 24 -300 52 -44 9 -143 25 -220 37 -137 20 -170
20 -1390 19 -705 -1 -1338 -7 -1452 -12 -226 -12 -242 -9 -300 51 -62 65 -64
81 -58 367 10 484 13 1687 5 1892 -5 113 -12 286 -15 385 -13 391 -38 577 -90
690 -70 150 -145 481 -145 638 0 120 -36 292 -80 382 -21 44 -49 112 -61 150
-12 39 -32 91 -45 116 -13 26 -31 78 -40 115 -20 80 -90 233 -134 296 -68 96
-81 121 -99 196 -41 168 -61 204 -181 327 -53 55 -113 122 -133 148 -20 27
-68 83 -107 124 -39 42 -85 102 -102 132 -36 63 -261 295 -348 358 -30 23 -82
69 -115 103 -33 34 -87 81 -120 103 -33 22 -91 67 -130 100 -38 32 -147 110
-241 172 -94 63 -177 121 -183 129 -24 29 -96 64 -156 76 -54 11 -180 55 -275
98 -19 8 -63 35 -97 59 -113 79 -203 102 -658 164 -82 11 -202 25 -265 30
-274 22 -342 29 -470 49 -254 40 -452 50 -895 45 -657 -8 -723 -11 -812 -40
-167 -55 -219 -20 -258 169 -14 68 -14 114 -6 345 5 146 10 995 11 1886 1 890
4 1623 6 1627 9 14 24 3395 25 5503 1 1730 -1 2011 -15 2150 -15 153 -34 729
-35 1070 -2 280 -20 683 -35 755 -18 85 -70 198 -123 269 -23 30 -54 79 -69
110 -32 64 -67 112 -139 192 -27 30 -61 77 -74 105 -13 27 -44 79 -67 116 -47
74 -107 119 -199 152 -97 35 -150 65 -190 106 -22 23 -58 54 -80 69 -42 29
-194 94 -305 132 -36 12 -78 31 -95 41 -72 44 -137 69 -232 87 -97 19 -148 21
-895 23 -436 2 -1322 2 -1968 1 -4393 -9 -32385 0 -34450 11 -556 3 -849 0
-1035 -9z m23685 -2560 c8759 -3 13412 -9 13464 -15 124 -16 191 -65 216 -159
18 -69 30 -207 30 -344 0 -77 5 -203 10 -281 47 -651 47 -679 20 -929 -11
-100 -23 -279 -27 -397 -11 -288 4 -12677 16 -13985 5 -566 14 -1203 19 -1415
10 -397 1 -981 -18 -1155 -6 -49 -13 -290 -16 -535 -6 -410 -8 -449 -26 -498
-22 -60 -67 -116 -109 -137 -15 -8 -61 -20 -101 -26 -96 -14 -4147 -12 -4813
2 -282 6 -608 7 -790 2 -339 -9 -1622 -10 -4695 -4 -1103 2 -7437 0 -14076 -4
-9033 -5 -12081 -4 -12113 5 -62 17 -116 77 -141 159 l-21 66 6 5605 c3 3083
10 6825 15 8317 5 1492 7 2718 5 2725 -3 8 -7 322 -10 698 -2 377 -8 977 -13
1333 -10 691 -8 737 37 825 45 88 112 118 240 108 47 -3 226 -2 396 4 648 22
976 30 1485 36 289 4 527 9 530 11 3 3 1600 2 3550 -1 1950 -4 9568 -8 16930
-11z m24727 -22381 c65 -8 150 -24 188 -34 120 -32 328 -79 380 -85 28 -4 73
-10 100 -16 57 -10 151 -21 420 -49 105 -11 231 -29 280 -40 50 -10 124 -24
167 -29 77 -11 316 -84 385 -119 21 -11 77 -29 125 -41 138 -34 308 -108 363
-158 46 -42 87 -64 166 -87 176 -51 275 -100 349 -171 31 -30 95 -75 147 -103
127 -69 311 -223 528 -444 158 -161 185 -193 219 -262 21 -43 62 -103 90 -133
58 -63 96 -116 133 -188 14 -27 42 -72 63 -100 74 -98 166 -276 190 -365 12
-47 42 -128 66 -181 24 -53 44 -99 44 -102 0 -4 18 -44 39 -89 44 -93 76 -236
91 -417 20 -229 68 -441 134 -598 24 -58 72 -219 102 -343 7 -30 18 -102 24
-160 9 -79 12 -2561 12 -9910 0 -5393 -3 -9837 -7 -9875 -9 -86 -58 -238 -89
-280 -38 -50 -74 -120 -111 -218 -32 -85 -48 -162 -94 -462 -9 -57 -49 -141
-143 -299 -16 -27 -38 -79 -50 -115 -38 -125 -49 -148 -99 -217 -27 -38 -93
-133 -145 -212 -69 -103 -115 -159 -166 -205 -38 -34 -92 -93 -118 -132 -65
-95 -118 -153 -187 -205 -32 -25 -102 -87 -155 -138 -53 -52 -129 -118 -170
-146 -40 -29 -109 -81 -153 -117 -114 -92 -212 -154 -275 -174 -74 -24 -142
-59 -182 -94 -18 -16 -69 -43 -113 -61 -44 -18 -94 -38 -111 -46 -18 -8 -60
-21 -95 -29 -35 -8 -83 -19 -106 -25 -49 -11 -213 -90 -300 -144 -87 -54 -183
-75 -393 -87 -100 -6 -1118 -13 -2385 -18 -1748 -5 -2217 -4 -2243 6 -39 15
-80 56 -99 101 -12 28 -14 565 -13 3610 1 2195 5 3627 11 3707 21 283 32 644
34 1145 3 523 0 613 -35 861 -5 37 -14 188 -20 335 -18 501 -20 549 -31 639
-18 149 -29 193 -69 268 -20 40 -50 104 -65 142 -16 39 -34 79 -41 90 -7 11
-26 65 -43 120 -17 55 -47 127 -67 160 -20 33 -52 92 -71 130 -20 39 -58 104
-85 145 -48 74 -261 298 -368 389 -30 25 -61 51 -68 58 -97 91 -215 148 -350
168 -54 8 -107 23 -125 34 -18 11 -54 33 -82 50 -27 16 -81 50 -120 76 -38 25
-86 50 -105 55 -57 15 -293 38 -460 45 -85 3 -218 15 -295 26 -77 11 -223 24
-325 29 -102 4 -282 13 -400 19 -118 6 -348 18 -510 26 -635 32 -708 36 -790
44 -47 5 -184 7 -305 6 -596 -5 -1922 -26 -2335 -37 -351 -9 -5474 -13 -20855
-18 -16559 -5 -20402 -9 -20455 -19 -48 -10 -227 -14 -685 -15 -527 -2 -634
-4 -710 -18 -100 -19 -151 -24 -369 -38 -82 -5 -204 -17 -270 -25 -224 -28
-297 -50 -387 -116 -105 -77 -237 -132 -361 -149 -79 -11 -145 -37 -177 -69
-11 -11 -71 -64 -133 -117 -236 -203 -498 -470 -498 -509 0 -18 -88 -154 -130
-202 -21 -24 -47 -66 -56 -91 -9 -26 -28 -74 -41 -107 -14 -33 -38 -98 -55
-145 -16 -47 -47 -116 -68 -155 -21 -38 -50 -108 -65 -155 -27 -83 -28 -91
-36 -430 -4 -190 -8 -2506 -8 -5147 l0 -4803 -21 -40 c-11 -22 -39 -52 -62
-67 -37 -25 -50 -28 -117 -26 -42 1 -852 6 -1801 12 -2318 13 -2822 24 -3060
67 -19 4 -111 46 -205 94 -122 63 -188 91 -235 99 -130 24 -319 92 -379 136
-68 50 -86 58 -178 85 -99 30 -173 77 -273 174 -82 80 -122 103 -206 120 -59
12 -107 50 -186 147 -21 25 -63 66 -94 90 -93 72 -135 111 -177 164 -22 28
-80 93 -131 146 -63 67 -103 120 -130 173 -22 42 -71 113 -108 159 -70 83
-129 179 -183 297 -16 36 -56 105 -89 153 -54 80 -62 97 -83 195 -13 59 -30
154 -39 210 -17 118 -60 223 -137 335 -66 96 -65 94 -93 235 -50 256 -49 41
-49 10437 0 9267 1 9694 18 10005 11 184 25 351 33 385 15 60 63 145 137 239
21 27 45 63 54 79 17 34 49 217 63 358 10 108 39 179 145 350 36 57 65 119 77
163 20 74 134 288 204 385 21 29 55 75 75 102 19 27 67 82 106 123 50 53 81
97 110 157 43 88 105 159 209 236 48 36 81 68 326 319 93 95 121 117 203 159
52 28 107 61 122 75 96 87 197 152 352 229 53 26 128 72 168 102 57 43 94 62
185 91 62 21 147 44 190 52 42 8 98 26 125 39 103 52 300 118 381 127 45 5 98
14 119 19 21 6 72 15 113 21 41 7 164 29 273 51 109 21 226 39 260 39 34 0
141 7 237 15 469 40 256 39 29805 45 15659 3 28475 8 28480 12 11 7 394 37
530 41 293 9 501 6 612 -9z m-14236 -17763 c1880 -7 2761 -14 2795 -21 56 -12
116 -56 140 -102 8 -16 19 -75 24 -131 12 -149 50 -285 99 -359 23 -33 46 -79
52 -101 6 -23 22 -78 34 -122 28 -93 46 -222 75 -530 15 -165 28 -208 88 -295
88 -127 144 -214 154 -240 19 -49 49 -217 64 -355 8 -77 19 -178 24 -225 10
-98 61 -263 114 -367 34 -68 69 -202 97 -368 5 -33 18 -94 29 -135 10 -41 26
-106 35 -145 9 -38 26 -90 37 -115 55 -122 107 -301 118 -400 5 -56 12 -105
14 -109 3 -4 10 -54 15 -110 14 -134 62 -278 133 -398 88 -147 109 -243 137
-604 12 -143 50 -291 101 -384 72 -133 130 -338 180 -630 10 -60 23 -123 29
-139 7 -16 21 -64 32 -105 11 -42 31 -100 45 -130 13 -30 31 -91 39 -135 7
-45 21 -110 29 -146 9 -36 16 -83 16 -105 1 -80 58 -294 99 -371 22 -40 51
-104 65 -141 13 -37 32 -86 42 -108 21 -49 53 -282 54 -390 0 -44 9 -127 20
-185 16 -84 30 -124 70 -200 131 -247 148 -289 170 -415 11 -66 24 -158 29
-205 30 -272 40 -317 111 -485 38 -89 73 -188 79 -220 6 -33 22 -127 37 -210
14 -82 36 -175 48 -205 12 -30 28 -77 36 -105 7 -27 26 -81 43 -120 36 -83 97
-322 97 -380 0 -66 38 -337 53 -380 20 -55 94 -201 127 -250 54 -80 86 -208
100 -400 5 -66 14 -164 20 -217 12 -111 69 -311 107 -378 14 -25 34 -62 45
-83 23 -47 64 -202 78 -299 19 -130 68 -320 134 -524 66 -201 89 -311 106
-500 11 -123 32 -191 111 -351 85 -174 94 -256 39 -333 -32 -46 -87 -66 -220
-84 -192 -25 -267 -27 -435 -10 -140 14 -331 15 -1515 11 -745 -3 -1634 -4
-1975 -3 -2582 5 -10664 -1 -13485 -12 -4284 -16 -4492 -15 -4740 2 -135 10
-362 14 -735 13 -297 -1 -4583 0 -9525 1 -8633 2 -9694 -1 -10663 -29 -370
-10 -413 -9 -451 5 -90 34 -133 123 -123 249 12 132 62 358 95 422 17 33 43
94 58 135 14 41 37 95 49 120 25 51 68 232 85 360 6 47 21 119 34 160 13 41
27 91 31 110 4 19 19 62 32 95 34 80 84 281 123 490 35 184 51 238 98 314 17
27 50 98 73 157 45 116 53 163 68 409 9 149 41 306 73 365 10 19 33 58 50 85
17 28 52 100 78 160 53 121 90 290 90 410 0 80 32 229 67 310 74 172 161 484
195 695 5 36 26 101 45 145 101 230 126 331 158 645 4 36 20 117 36 180 23 89
38 127 68 170 46 66 82 136 115 224 24 63 34 135 56 396 9 107 32 247 52 310
6 19 25 67 44 106 18 39 38 91 44 115 7 24 21 61 32 83 25 49 76 275 89 388
10 104 55 271 100 375 30 71 111 439 134 612 16 125 54 228 130 356 23 39 47
84 53 100 18 45 52 259 52 323 0 73 25 312 40 376 21 96 52 177 86 226 95 138
120 226 159 550 29 241 58 381 104 499 53 135 98 302 126 466 26 157 41 209
126 430 46 122 59 175 83 350 10 66 26 163 36 215 10 52 22 122 25 155 8 73
38 197 66 270 14 37 40 75 81 117 91 95 128 184 128 312 0 88 24 325 44 437 8
46 19 111 24 144 7 39 32 106 73 189 67 137 120 203 183 230 29 12 1001 15
6732 21 3685 4 6700 8 6701 9 9 7 17782 5 19874 -3z"/>
<path d="M89985 73731 c-80 -10 -155 -36 -203 -71 -94 -68 -222 -115 -358
-129 -54 -7 -151 -20 -215 -31 -114 -19 -119 -21 -195 -76 -44 -31 -140 -87
-214 -124 -99 -51 -155 -86 -210 -135 -51 -45 -107 -82 -175 -116 -76 -37
-116 -65 -170 -116 -38 -38 -107 -97 -153 -131 -46 -35 -110 -97 -145 -140
-34 -42 -114 -129 -177 -192 -93 -92 -119 -125 -133 -165 -31 -88 -66 -149
-122 -208 -32 -35 -71 -93 -94 -140 -57 -117 -110 -212 -165 -293 -40 -61 -49
-84 -62 -160 -9 -48 -25 -110 -36 -138 -11 -28 -27 -71 -35 -96 -8 -25 -33
-78 -56 -118 -22 -41 -48 -104 -57 -140 -10 -37 -28 -92 -39 -122 -45 -114
-63 -305 -63 -650 0 -173 4 -379 9 -458 9 -134 12 -146 46 -215 20 -39 57
-103 83 -142 59 -89 66 -110 113 -343 35 -171 44 -201 79 -260 22 -37 57 -98
77 -137 21 -38 44 -79 50 -90 7 -11 23 -54 36 -95 25 -82 44 -114 103 -178 45
-48 116 -151 116 -168 0 -18 83 -118 140 -169 95 -84 378 -373 409 -419 17
-24 59 -66 93 -93 191 -151 312 -236 385 -272 46 -23 106 -61 136 -85 29 -23
64 -50 77 -59 37 -24 224 -84 314 -102 62 -11 100 -26 170 -68 219 -130 209
-126 367 -142 303 -30 506 -37 909 -33 371 4 414 7 510 27 83 18 123 33 190
71 155 88 258 131 365 150 128 24 241 67 330 127 39 27 71 51 73 55 2 4 51 25
109 48 150 58 231 107 418 253 55 43 277 270 335 342 14 17 77 82 140 145 64
63 137 147 163 185 152 227 184 279 219 360 25 59 59 116 99 164 86 106 132
216 148 359 10 93 84 293 131 357 41 55 59 97 81 185 33 131 39 235 39 655 -1
478 -9 623 -41 715 -21 63 -95 190 -118 205 -40 24 -100 226 -116 390 -9 91
-25 127 -131 287 -48 73 -99 162 -112 197 -14 35 -47 91 -73 125 -26 34 -72
104 -101 156 -60 108 -96 151 -188 225 -36 29 -175 162 -310 296 -234 233
-248 245 -305 263 -81 25 -122 47 -175 95 -47 42 -76 58 -252 140 -106 49
-165 85 -223 135 -36 31 -80 53 -121 60 -17 3 -66 13 -110 21 -43 8 -99 15
-123 15 -62 0 -246 28 -311 47 -30 9 -85 34 -122 55 -37 21 -105 55 -150 76
l-83 37 -380 1 c-209 1 -407 -1 -440 -5z"/>
<path d="M82835 73705 c-49 -7 -132 -14 -182 -14 -81 -1 -104 -5 -175 -34
-236 -95 -276 -108 -400 -127 -70 -11 -156 -20 -191 -20 -35 0 -88 -7 -118
-16 -58 -17 -204 -92 -255 -130 -17 -13 -78 -41 -135 -63 -108 -40 -177 -81
-314 -185 -44 -34 -100 -75 -124 -91 -25 -17 -85 -68 -135 -115 -58 -54 -122
-103 -178 -134 -64 -36 -107 -70 -164 -130 -43 -44 -126 -130 -185 -191 -106
-109 -107 -111 -133 -197 -15 -47 -36 -99 -49 -115 -25 -33 -129 -132 -139
-133 -18 0 -99 -145 -128 -229 -19 -51 -53 -123 -77 -160 -60 -91 -96 -191
-159 -441 -30 -118 -68 -255 -84 -305 -15 -49 -41 -148 -56 -220 -26 -124 -27
-141 -26 -395 2 -367 17 -569 47 -640 68 -156 114 -293 125 -365 14 -95 62
-270 86 -317 9 -18 34 -55 54 -83 20 -27 63 -115 95 -195 81 -201 97 -232 161
-297 38 -39 72 -90 105 -155 41 -81 66 -115 148 -200 54 -57 115 -123 135
-148 21 -25 85 -92 144 -150 59 -58 134 -135 167 -171 33 -36 87 -80 120 -99
71 -40 111 -68 185 -132 30 -25 93 -68 140 -94 47 -25 117 -70 157 -99 100
-73 237 -131 338 -144 121 -15 126 -18 372 -170 35 -22 72 -35 115 -41 272
-37 610 -55 878 -46 565 18 678 29 768 75 21 11 76 32 123 47 46 15 116 43
154 62 69 35 321 122 353 122 28 1 98 36 154 78 29 22 96 61 148 86 62 30 124
70 180 117 47 39 118 96 157 125 134 99 472 452 674 703 42 53 102 125 133
161 35 40 75 104 105 165 32 67 69 123 110 169 87 98 133 214 146 371 9 95 31
171 94 325 47 113 54 140 109 455 13 69 16 154 15 360 -1 440 -28 670 -97 840
-33 79 -78 239 -91 324 -9 52 -17 97 -19 100 -2 3 -11 49 -20 101 -25 140 -47
184 -178 346 -38 48 -69 100 -93 160 -20 50 -51 107 -71 129 -19 22 -74 91
-121 153 -47 63 -113 144 -147 180 -33 37 -90 101 -126 142 -70 81 -105 114
-178 168 -26 19 -85 72 -132 117 -96 93 -139 122 -225 154 -72 27 -112 51
-172 103 -24 21 -124 78 -222 128 -97 49 -197 104 -221 122 -25 18 -61 41 -80
50 -54 27 -204 59 -325 69 -162 13 -277 37 -395 82 -292 110 -292 110 -445
113 -80 1 -178 -3 -230 -11z m175 -2214 c19 -5 74 -12 121 -16 47 -3 103 -11
125 -16 21 -6 66 -16 99 -23 116 -24 158 -44 215 -99 30 -29 90 -75 132 -101
91 -55 135 -103 178 -194 19 -39 56 -92 89 -127 72 -75 77 -85 95 -181 22
-122 56 -272 78 -347 31 -106 33 -194 9 -337 -12 -69 -28 -145 -36 -170 -8
-25 -17 -70 -20 -100 -10 -87 -24 -129 -73 -223 -44 -84 -85 -134 -182 -223
-25 -23 -84 -82 -132 -132 -116 -121 -188 -161 -305 -173 -63 -7 -106 -18
-163 -44 -43 -20 -105 -40 -137 -46 -32 -6 -83 -17 -113 -25 -126 -33 -319 -1
-455 75 -27 16 -92 38 -143 51 -122 28 -253 102 -331 184 -31 32 -83 86 -116
120 -206 214 -255 297 -255 433 0 26 -9 95 -20 153 -29 157 -43 351 -30 430 6
36 12 76 14 90 2 14 11 75 20 135 8 61 20 143 25 183 12 90 33 121 129 182 53
34 79 59 104 99 48 78 112 145 160 169 44 21 96 37 111 33 5 -1 32 23 60 52
29 30 68 62 87 72 66 34 215 76 340 96 68 11 126 22 129 24 8 9 155 5 191 -4z"/>
<path d="M50740 55533 c-67 -4 -270 -26 -490 -52 -209 -25 -585 -41 -979 -41
-168 0 -428 -7 -577 -15 -382 -20 -489 -37 -577 -90 -158 -95 -265 -198 -340
-325 -15 -25 -45 -67 -67 -95 -113 -141 -129 -167 -155 -247 -14 -46 -30 -91
-35 -100 -5 -9 -19 -63 -30 -120 -12 -57 -30 -130 -41 -163 -43 -130 -34 -249
32 -428 16 -43 38 -115 49 -160 11 -45 42 -138 68 -207 41 -108 54 -132 103
-185 31 -33 81 -99 111 -146 85 -132 105 -147 233 -180 39 -9 124 -31 190 -48
66 -17 150 -47 187 -66 37 -19 123 -54 190 -76 l123 -42 645 -8 c355 -4 897
-13 1205 -20 646 -14 6260 -7 8880 11 2079 15 4836 17 7465 7 1191 -5 2167
-10 2170 -12 3 -2 1484 -7 3290 -11 2415 -5 3469 -3 3980 5 382 7 900 16 1150
20 l455 7 90 39 c50 22 124 58 165 81 54 31 96 46 150 54 90 15 146 35 221 81
79 48 126 93 210 202 41 52 100 126 131 164 71 88 134 185 146 226 19 60 35
440 30 692 -5 230 -7 258 -31 347 -33 123 -47 149 -117 223 -32 33 -78 92
-103 130 -53 83 -110 139 -192 191 -33 20 -93 70 -133 111 -81 81 -112 100
-222 134 -63 19 -98 23 -225 24 -82 0 -5683 2 -12445 4 -6762 1 -12421 6
-12575 11 -154 5 -368 11 -475 15 -838 25 -1201 38 -1535 55 -186 10 -212 10
-325 3z"/>
<path d="M26316 54258 c-15 -145 -20 -320 -21 -708 -1 -473 3 -513 56 -551 16
-11 29 -16 29 -10 0 5 8 12 18 15 9 3 25 23 34 45 15 35 17 68 12 278 -3 131
-10 276 -16 323 -7 47 -10 95 -9 108 1 12 -2 22 -7 22 -6 0 -13 28 -16 63 -3
34 -8 89 -12 122 -3 33 -9 120 -14 194 -8 127 -14 150 -42 151 -4 0 -9 -24
-12 -52z"/>
<path d="M99770 52587 c0 -61 1 -65 20 -60 18 5 21 12 18 62 -2 44 -7 57 -20
59 -16 3 -18 -5 -18 -61z"/>
<path d="M31418 46924 c-3 -3 -23 -7 -44 -10 -55 -6 -111 -33 -117 -56 -7 -26
2 -48 19 -48 8 0 17 -6 20 -14 7 -18 26 -26 89 -36 61 -10 185 7 185 25 0 7
11 16 25 19 20 5 25 12 25 40 0 36 4 34 -95 60 -84 23 -102 26 -107 20z"/>
<path d="M94943 46885 c-65 -28 -28 -106 57 -120 46 -8 80 1 80 20 0 8 11 17
25 21 19 5 25 13 25 35 0 16 -5 29 -11 29 -6 0 -17 7 -25 15 -20 19 -107 19
-151 0z"/>
<path d="M38624 45662 c-63 -29 -85 -118 -41 -160 13 -12 42 -24 68 -28 64 -8
81 8 87 83 4 52 1 63 -19 85 -30 34 -56 39 -95 20z"/>
<path d="M39605 44377 c-20 -31 -15 -78 10 -99 35 -30 135 -17 135 17 0 8 5
15 10 15 6 0 10 9 10 20 0 11 -4 20 -10 20 -5 0 -10 7 -10 15 0 20 -40 35 -90
35 -30 0 -43 -5 -55 -23z"/>
<path d="M86960 44380 c-26 -26 -27 -90 -2 -113 43 -39 122 -5 122 52 0 17 -4
31 -10 31 -5 0 -10 7 -10 15 0 15 -37 35 -66 35 -8 0 -23 -9 -34 -20z"/>
<path d="M40330 44103 c0 -7 -7 -13 -15 -13 -8 0 -15 -4 -15 -10 0 -5 7 -10
15 -10 8 0 15 -4 15 -10 0 -6 27 -10 60 -10 60 0 60 0 60 29 0 29 -1 29 -60
33 -43 2 -60 -1 -60 -9z"/>
</g>
</svg>
